<svg xmlns="http://www.w3.org/2000/svg" xml:space="preserve" width="1080" height="1080"><rect width="100" height="100" x="-50" y="-50" fill="none" rx="0" ry="0" style="stroke:none;stroke-width:1;stroke-dasharray:none;stroke-linecap:butt;stroke-dashoffset:0;stroke-linejoin:miter;stroke-miterlimit:4;fill:#fff;fill-opacity:0;fill-rule:nonzero;opacity:1" transform="translate(50 50)" vector-effect="non-scaling-stroke"/><rect width="1080" height="1080" x="-540" y="-540" rx="0" ry="0" style="stroke:none;stroke-width:1;stroke-dasharray:none;stroke-linecap:butt;stroke-dashoffset:0;stroke-linejoin:miter;stroke-miterlimit:4;fill:#2c2c2c;fill-rule:nonzero;opacity:1" transform="translate(540 540)" vector-effect="non-scaling-stroke"/><path d="M421.31 559.1a92.07 92.07 0 0 0-7.94 37.31c0 29.81 14.48 56.81 37.88 76.35 23.4 19.54 55.75 31.63 91.47 31.63s68-12.09 91.46-31.63c23.46-19.54 37.89-46.54 37.89-76.35 0-29.81-14.48-56.8-37.89-76.34-15.82-13.21-35.73-23-58-28-.63-4.06-1.46-8.3-2.6-12.77a184.93 184.93 0 0 0-16.21-41.09C550.75 426 543 415 534.9 407.9l-8.23-7.3 1.93 10.4c4.32 23.4 5.31 39.29.82 53-3.07 9.42-8.79 18-17.83 27.56a138 138 0 0 0-58.51 27c4.25-15.63 15.27-26.84 27.14-38.85 10.77-10.9 22.18-22.45 30.29-38.54 10.54-20.89 13.65-42.27 10.46-63-3.35-21.8-13.63-42.86-29.52-61.88l-6.67-8-.06 10.12c-.31 50.12-11.88 63.6-29 83.56-9.4 11-20.42 23.8-32.24 45.25-7.86 14.26-13.42 29.32-15.06 46.05-1.64 16.73.65 35 8.48 55.77a109.12 109.12 0 0 0 4.41 10.06Zm32.6 111.46a111.18 111.18 0 0 1-17.57-18.38h28.52a108 108 0 0 0 13.38 20.37 90.51 90.51 0 0 0 33.91 25.59c-22.4-4.68-42.42-14.37-58.24-27.58ZM473 543.76c-2.52 11.25-2.37 23-2.19 36.14 0 1.69.05 3.41.06 5.14a129.11 129.11 0 0 1-9.36-14.82c-.75-1.41-1.46-2.84-2.16-4.29a116.69 116.69 0 0 1 8-22.17Zm-4-3.12a104.15 104.15 0 0 1 12.36-18.55c1.5-1.79 3.06-3.51 4.66-5.17a64.28 64.28 0 0 0-12.19 23.72Zm-12 19.9a78.75 78.75 0 0 1-4.82-16.78h11.17a119.76 119.76 0 0 0-6.35 16.78ZM469.27 615c7.72 6.79 14.6 12.85 19.29 18.54l6.82 8.26-.07-10.4a42.2 42.2 0 0 1 8.9-26.34 269 269 0 0 0 4.67 44h-41.51a120 120 0 0 1-11.58-46.17c4.6 4.31 9.21 8.34 13.48 12.11Zm12 55.71A104.59 104.59 0 0 1 469 652.18h40.56a170.15 170.15 0 0 0 5.42 19.9c4.6 13.32 10.5 23.24 17.21 28.37-19.77-2.88-37.48-13.7-50.88-29.71Zm61.41 30.49c-9.21 0-17.78-11.48-24.19-30a166.1 166.1 0 0 1-5.21-19h58.8a166.1 166.1 0 0 1-5.21 19c-6.37 18.55-14.94 30.03-24.15 30.03Zm27.79-29.15a168.26 168.26 0 0 0 5.41-19.9h40.57a104.59 104.59 0 0 1-12.36 18.56c-13.4 16-31.11 26.83-50.83 29.71 6.74-5.1 12.64-15.02 17.25-28.34ZM629.84 598a120.38 120.38 0 0 1-11.78 51.09h-41.5a276.4 276.4 0 0 0 4.79-51.09Zm-53.28-54.21h41.5a120.42 120.42 0 0 1 11.78 51.09h-48.49a276.48 276.48 0 0 0-4.79-51.12Zm55 126.8c-15.82 13.21-35.84 22.9-58.24 27.58a90.58 90.58 0 0 0 33.91-25.59 108 108 0 0 0 13.38-20.37h28.49a111.18 111.18 0 0 1-17.57 18.35Zm19.83-21.5h-29.28A123.63 123.63 0 0 0 633.6 598h34.69a91.72 91.72 0 0 1-16.93 51.06Zm16.93-54.21H633.6a123.63 123.63 0 0 0-11.49-51.09h29.25a91.72 91.72 0 0 1 16.93 51.06Zm-36.76-72.59a111.57 111.57 0 0 1 17.57 18.38h-28.55a108 108 0 0 0-13.38-20.37 91.54 91.54 0 0 0-30.45-24c0-.26 0-.52-.09-.79 21.03 4.9 39.85 14.22 54.87 26.75Zm-54.39-22.13a88.45 88.45 0 0 1 27 22 104.15 104.15 0 0 1 12.36 18.55h-40.61c-.66-3.13-1.39-6.14-2.15-9.06 3-8.99 4.35-19.31 3.37-31.52Zm-5.72 37.44c.23 1 .47 2 .7 3.07h-2.18c.49-1.03 1.03-2.05 1.45-3.1Zm-40.35 43.16c13.79-10.46 28.16-21.36 37.18-37h4.51a272.88 272.88 0 0 1 4.82 51.09h-64c5.31-4.85 11.32-9.45 17.46-14.12ZM510.39 598h67.19a272.71 272.71 0 0 1-4.82 51.09h-60.08a269.85 269.85 0 0 1-4.78-48.44c.8-.93 1.63-1.81 2.49-2.65Zm-58.45-74c.66-.58 1.3-1.18 2-1.75 14.69-12.26 33-21.44 53.52-26.44-.8.78-1.61 1.57-2.45 2.37a92.35 92.35 0 0 0-26.74 22.08 108 108 0 0 0-13.38 20.37h-13.18a59.48 59.48 0 0 1 .23-16.63Zm-.06 75.15a123.43 123.43 0 0 0 11.45 49.9h-29.25A91.81 91.81 0 0 1 417.14 598h33.53Zm-28.35-35.85a146.72 146.72 0 0 0 24 31.54h-30.39a89.29 89.29 0 0 1 6.39-31.53Z" style="stroke:none;stroke-width:1;stroke-dasharray:none;stroke-linecap:butt;stroke-dashoffset:0;stroke-linejoin:miter;stroke-miterlimit:4;fill:#fff;fill-rule:nonzero;opacity:1" transform="translate(-680.4 -604.328)scale(2.26)" vector-effect="non-scaling-stroke"/></svg>